<?xml version="1.0" encoding="UTF-8"?>
<svg width="1200pt" height="1200pt" version="1.1" viewBox="0 0 1200 1200" xmlns="http://www.w3.org/2000/svg">
 <path d="m510.29 1044.5h0.023438c0.085938 0.058594 0.20312 0.058594 0.28906 0.10938 0.80469 0.40625 1.7031 0.70703 2.6875 0.70703 0.98438 0 1.8594-0.28906 2.6875-0.70703 0.097657-0.046875 0.21484-0.046875 0.30078-0.10938h0.011718l194.69-112.38 194.79-112.45c0.21484-0.13281 0.33594-0.32422 0.52734-0.46875 0.34766-0.25391 0.68359-0.51562 0.96094-0.83984 0.25391-0.27734 0.43359-0.60156 0.625-0.92578s0.37109-0.64844 0.50391-1.0195c0.13281-0.39453 0.19141-0.78125 0.25391-1.2109 0.023438-0.25391 0.14453-0.46875 0.14453-0.73047l-0.003906-224.83c0-0.13281-0.070313-0.23828-0.070313-0.34766-0.023437-0.26562-0.046875-0.51562-0.10938-0.76953-0.046875-0.27734-0.12109-0.53906-0.21484-0.80469-0.097656-0.25391-0.19141-0.50391-0.3125-0.74219-0.046875-0.10938-0.046875-0.22656-0.10938-0.32422-0.058593-0.097656-0.16797-0.16797-0.22656-0.25391-0.15625-0.22656-0.30078-0.42188-0.48047-0.625-0.19141-0.22656-0.38281-0.40625-0.60156-0.60156-0.21484-0.19141-0.40625-0.34766-0.64844-0.49219-0.097656-0.070313-0.15625-0.16797-0.25391-0.22656l-191.79-110.69 0.003906-221.45c0-0.13281-0.070313-0.23828-0.070313-0.35938-0.011719-0.25391-0.046875-0.50391-0.10938-0.76953-0.058594-0.27734-0.12109-0.53906-0.21484-0.80469-0.097656-0.26562-0.19141-0.50391-0.3125-0.74219-0.046874-0.10937-0.046874-0.22656-0.10937-0.32422-0.058594-0.097656-0.16797-0.15625-0.22656-0.25391-0.15625-0.22656-0.30078-0.43359-0.49219-0.63672-0.19141-0.22656-0.39453-0.42188-0.625-0.61328-0.19141-0.15625-0.35938-0.30078-0.5625-0.44531-0.12109-0.070313-0.17969-0.19141-0.28906-0.25391l-194.69-112.38c-0.20312-0.12109-0.43359-0.12109-0.64844-0.21484-0.42188-0.17969-0.81641-0.33594-1.2617-0.42188-0.32422-0.058594-0.64844-0.058594-0.96094-0.070313-0.44531 0-0.86328 0-1.3086 0.097657-0.34766 0.070312-0.68359 0.21484-1.0078 0.34766-0.26562 0.10938-0.55078 0.12109-0.80469 0.26562l-194.76 112.38c-0.12109 0.058594-0.17969 0.17969-0.28906 0.25391-0.20312 0.14453-0.38281 0.28906-0.57422 0.45703-0.22656 0.19141-0.42188 0.38281-0.625 0.60156-0.17969 0.20312-0.32422 0.40625-0.48047 0.63672-0.058594 0.097656-0.16797 0.15625-0.22656 0.25391-0.058594 0.10938-0.058594 0.22656-0.12109 0.32422-0.12109 0.23828-0.21484 0.48047-0.30078 0.74219-0.097656 0.26562-0.16797 0.52734-0.21484 0.80469-0.046876 0.26562-0.097657 0.50391-0.10938 0.76953-0.011718 0.12109-0.070312 0.22656-0.070312 0.35938v449.77l0.003906 224.83c0 0.25391 0.12109 0.48047 0.15625 0.73047 0.046875 0.42188 0.10938 0.80469 0.23828 1.2109 0.13281 0.37109 0.30078 0.69531 0.50391 1.0195 0.19141 0.32422 0.37109 0.64844 0.625 0.92578 0.27734 0.32422 0.61328 0.58984 0.96094 0.83984 0.19141 0.14453 0.3125 0.33594 0.52734 0.46875zm191.69-345.86-182.69 105.46v-211l182.69-105.48zm-194.69-330.34v210.96l-182.76-105.49v-211.06zm0 224.79v211l-182.76-105.46v-211.03zm-182.76 119.38 182.76 105.46v210.99l-182.76-105.46zm194.76 105.45 182.69-105.46v211l-182.69 105.46zm194.69-112.38 182.79-105.53v211l-182.79 105.53zm-12-231.78-182.69 105.49v-210.96l182.69-105.57z"/>
</svg>
